<svg xmlns="http://www.w3.org/2000/svg" width="671" height="90" viewBox="0 0 671 90"><rect width="100%" height="100%" fill="#DDDDDD"/><path fill="#999999" d="m267.275 28.735-9.65 11.81-1.12 1.39q.94-.47 2.03-.73 1.09-.26 2.35-.26 1.85 0 3.59.61 1.75.61 3.07 1.83 1.33 1.23 2.14 3.05.81 1.83.81 4.26 0 2.27-.83 4.26-.83 1.99-2.34 3.48-1.51 1.48-3.64 2.34-2.12.85-4.69.85-2.61 0-4.68-.83t-3.53-2.33q-1.46-1.5-2.24-3.6-.77-2.1-.77-4.67 0-2.3.93-4.71.93-2.42 2.89-5.03l7.76-10.42q.41-.54 1.18-.92.78-.38 1.79-.38h4.95Zm-8.39 28.35q1.33 0 2.44-.45 1.12-.45 1.91-1.26.8-.82 1.25-1.91.45-1.09.45-2.37 0-1.39-.43-2.51-.42-1.11-1.21-1.89-.79-.77-1.89-1.18-1.1-.41-2.43-.41t-2.41.45q-1.08.46-1.84 1.25-.77.8-1.19 1.89-.43 1.1-.43 2.36 0 1.34.37 2.46.37 1.11 1.1 1.9.73.79 1.81 1.23 1.08.44 2.5.44Zm15.19-28.35h22.47v2.4q0 1.08-.22 1.75-.23.66-.45 1.11l-12.33 25.38q-.38.79-1.08 1.34-.7.55-1.87.55h-4.03l12.58-24.86q.43-.77.85-1.41.41-.64.93-1.22h-15.57q-.52 0-.9-.39-.38-.38-.38-.9v-3.75Zm41.44 28.37h5.85v4.16h-18v-4.16h6.59v-18.97q0-1.12.07-2.32l-4.68 3.92q-.4.31-.8.39-.39.08-.74.01t-.62-.23q-.27-.17-.4-.37l-1.76-2.41 9.92-8.44h4.57v28.42Zm43.27-3.29-2.95 2.91-7.63-7.63-7.69 7.67-2.95-2.9 7.7-7.72-7.34-7.33 2.93-2.93 7.33 7.34 7.29-7.29 2.97 2.92-7.31 7.31 7.65 7.65Zm20.79-15.32q0 2.72 1.41 4.15 1.4 1.43 3.99 1.43 1.35 0 2.41-.43 1.05-.42 1.77-1.17.72-.74 1.1-1.75.37-1.01.37-2.18 0-1.33-.41-2.38-.4-1.04-1.15-1.76-.74-.72-1.76-1.11-1.03-.38-2.24-.38-1.26 0-2.27.42-1.02.41-1.74 1.16-.72.74-1.1 1.76-.38 1.03-.38 2.24Zm-2.72 22.77 10.1-12.62q.38-.47.72-.92.34-.45.65-.91-1.12.73-2.47 1.1-1.35.37-2.84.37-1.69 0-3.31-.59-1.62-.58-2.88-1.76-1.26-1.19-2.03-2.93-.78-1.74-.78-4.08 0-2.18.81-4.1.81-1.91 2.27-3.35 1.47-1.44 3.51-2.27 2.05-.83 4.53-.83 2.49 0 4.49.78 1.99.79 3.39 2.21 1.41 1.42 2.16 3.4.76 1.98.76 4.34 0 1.51-.26 2.86-.26 1.35-.73 2.59-.48 1.25-1.15 2.45-.68 1.19-1.51 2.36l-7.45 10.62q-.38.54-1.14.91-.77.37-1.74.37h-5.1Zm46.37-16.27q0 4.26-.91 7.39-.91 3.14-2.52 5.19-1.61 2.05-3.8 3.05-2.2 1-4.74 1t-4.71-1q-2.18-1-3.77-3.05-1.6-2.05-2.5-5.19-.9-3.13-.9-7.39 0-4.27.9-7.4.9-3.13 2.5-5.17 1.59-2.05 3.77-3.05 2.17-1 4.71-1t4.74 1q2.19 1 3.8 3.05 1.61 2.04 2.52 5.17.91 3.13.91 7.4Zm-5.74 0q0-3.53-.52-5.85-.51-2.31-1.38-3.69-.87-1.37-1.99-1.92-1.13-.55-2.34-.55-1.19 0-2.31.55-1.11.55-1.97 1.92-.85 1.38-1.36 3.69-.5 2.32-.5 5.85 0 3.54.5 5.85.51 2.32 1.36 3.69.86 1.38 1.97 1.93 1.12.55 2.31.55 1.21 0 2.34-.55 1.12-.55 1.99-1.93.87-1.37 1.38-3.69.52-2.31.52-5.85Z"/></svg>