<svg xmlns="http://www.w3.org/2000/svg" width="270" height="90" viewBox="0 0 270 90"><rect width="100%" height="100%" fill="#DDDDDD"/><path fill="#999999" d="M65.93 55.11h7.61q.82 0 1.3.46.48.46.48 1.22v3.03H54.99v-1.68q0-.51.21-1.08.22-.56.69-1.01l9-9.02q1.12-1.15 2.02-2.2.89-1.04 1.48-2.07.6-1.02.91-2.08.32-1.05.32-2.22 0-1.07-.31-1.88-.3-.81-.87-1.36-.56-.55-1.35-.83-.79-.28-1.77-.28-.9 0-1.67.26-.77.26-1.37.72-.59.46-1 1.07-.41.62-.62 1.36-.34.94-.9 1.25-.55.3-1.6.14l-2.66-.47q.31-2.13 1.19-3.74.88-1.61 2.2-2.69 1.32-1.07 3.03-1.62 1.72-.54 3.68-.54 2.05 0 3.76.6 1.7.61 2.91 1.72 1.21 1.1 1.88 2.66.68 1.56.68 3.46 0 1.64-.48 3.04-.48 1.39-1.29 2.66-.81 1.27-1.9 2.46-1.09 1.19-2.28 2.42L62.2 55.7q.96-.29 1.92-.44.95-.15 1.81-.15Zm13.18-24.93h20.48v2.19q0 .98-.2 1.59-.21.6-.41 1.01L87.74 58.1q-.34.72-.98 1.22-.64.5-1.7.5h-3.67l11.46-22.65q.39-.7.77-1.28.38-.59.85-1.12H80.28q-.47 0-.82-.35t-.35-.82v-3.42ZM123.74 45q0 3.87-.83 6.73-.83 2.86-2.29 4.73-1.47 1.86-3.47 2.78-2 .91-4.31.91-2.32 0-4.3-.91-1.98-.92-3.43-2.78-1.46-1.87-2.28-4.73-.82-2.86-.82-6.73 0-3.9.82-6.75t2.28-4.71q1.45-1.87 3.43-2.78 1.98-.91 4.3-.91 2.31 0 4.31.91 2 .91 3.47 2.78 1.46 1.86 2.29 4.71.83 2.85.83 6.75Zm-5.23 0q0-3.22-.47-5.33t-1.26-3.36q-.79-1.25-1.81-1.76-1.03-.5-2.13-.5-1.09 0-2.11.5-1.01.51-1.79 1.76t-1.24 3.36q-.46 2.11-.46 5.33t.46 5.33q.46 2.11 1.24 3.36t1.79 1.75q1.02.51 2.11.51 1.1 0 2.13-.51 1.02-.5 1.81-1.75t1.26-3.36q.47-2.11.47-5.33Zm37.79 8.03-2.69 2.65-6.95-6.95-7.01 6.99-2.69-2.64 7.02-7.04-6.69-6.68 2.67-2.66 6.68 6.68 6.64-6.64 2.71 2.66-6.66 6.66 6.97 6.97Zm18.94-13.96q0 2.48 1.28 3.79 1.28 1.3 3.64 1.3 1.23 0 2.19-.39.97-.39 1.62-1.07.66-.67 1-1.6.33-.92.33-1.99 0-1.2-.37-2.16-.36-.95-1.04-1.61-.68-.65-1.61-1t-2.04-.35q-1.15 0-2.07.38-.92.38-1.58 1.06-.65.67-1 1.6-.35.94-.35 2.04Zm-2.48 20.75 9.2-11.5q.35-.43.66-.84.31-.41.59-.82-1.02.65-2.25.99-1.23.34-2.59.34-1.53 0-3.01-.53-1.47-.53-2.62-1.61-1.15-1.08-1.86-2.67-.71-1.58-.71-3.72 0-1.99.74-3.73t2.07-3.05q1.34-1.31 3.2-2.07 1.87-.76 4.12-.76 2.28 0 4.09.72 1.82.71 3.1 2.01 1.28 1.29 1.96 3.09.69 1.8.69 3.96 0 1.37-.23 2.6-.24 1.23-.67 2.37-.43 1.14-1.05 2.22-.61 1.09-1.37 2.16l-6.78 9.67q-.35.49-1.05.83-.7.34-1.58.34h-4.65ZM215.01 45q0 3.87-.83 6.73-.83 2.86-2.3 4.73-1.46 1.86-3.46 2.78-2 .91-4.32.91-2.31 0-4.29-.91-1.98-.92-3.44-2.78-1.45-1.87-2.27-4.73-.82-2.86-.82-6.73 0-3.9.82-6.75t2.27-4.71q1.46-1.87 3.44-2.78 1.98-.91 4.29-.91 2.32 0 4.32.91 2 .91 3.46 2.78 1.47 1.86 2.3 4.71.83 2.85.83 6.75Zm-5.23 0q0-3.22-.47-5.33t-1.26-3.36q-.79-1.25-1.82-1.76-1.02-.5-2.13-.5-1.08 0-2.1.5-1.01.51-1.79 1.76t-1.24 3.36q-.46 2.11-.46 5.33t.46 5.33q.46 2.11 1.24 3.36t1.79 1.75q1.02.51 2.1.51 1.11 0 2.13-.51 1.03-.5 1.82-1.75t1.26-3.36q.47-2.11.47-5.33Z"/></svg>